<svg xmlns="http://www.w3.org/2000/svg" viewBox="9 9 698.37 170"><path d="M42 38 L47.53 38 A4 4 0 0 0 51.11 35.79 L59.34 19.32 A6 6 0 0 1 64.71 16 L95.29 16 A6 6 0 0 1 100.66 19.32 L108.89 35.79 A4 4 0 0 0 112.47 38 L127 38 A17 17 0 0 1 144 55 L144 148 A24 24 0 0 1 120 172 L112 172" fill="none" stroke="#414042" stroke-width="10" stroke-linecap="round" stroke-linejoin="round"/><circle cx="31.9" cy="38" r="8.2" fill="none" stroke="#414042" stroke-width="6.6"/><path d="M16 64 L16 134 A38 38 0 0 0 54 172 L92 172" fill="none" stroke="#A4A4A2" stroke-width="10" stroke-linecap="round" stroke-linejoin="round"/><path d="M47 104 L65.46 122.46 A5 5 0 0 0 72.54 122.46 L109 86" fill="none" stroke="#2D9CA3" stroke-width="10" stroke-linecap="round" stroke-linejoin="round"/><circle cx="116.14" cy="78.86" r="8.2" fill="none" stroke="#2D9CA3" stroke-width="6.6"/><path d="M206.74 96.92L206.74 96.92Q200.31 96.92 196.60 94.24Q192.89 91.56 191.32 86.70Q189.75 81.84 189.75 75.49L189.75 75.49L189.75 54.67Q189.75 48.08 191.43 43.26Q193.12 38.44 197.21 35.80Q201.31 33.16 208.35 33.16L208.35 33.16Q215.24 33.16 219.18 35.45Q223.12 37.75 224.81 41.81Q226.49 45.86 226.49 51.30L226.49 51.30L226.49 55.28L213.10 55.28L213.10 50.23Q213.10 48.24 212.83 46.55Q212.56 44.87 211.60 43.84Q210.65 42.80 208.50 42.80L208.50 42.80Q206.28 42.80 205.29 43.99Q204.29 45.18 204.03 46.94Q203.76 48.70 203.76 50.61L203.76 50.61L203.76 79.31Q203.76 81.38 204.18 83.18Q204.60 84.98 205.71 86.09Q206.82 87.20 208.89 87.20L208.89 87.20Q211.03 87.20 212.18 86.05Q213.33 84.90 213.79 83.06Q214.24 81.23 214.24 79.16L214.24 79.16L214.24 71.89L208.66 71.89L208.66 63.85L226.57 63.85L226.57 96L217.54 96L216.77 90.87Q215.55 93.47 213.17 95.20Q210.80 96.92 206.74 96.92ZM248.92 96.77L248.92 96.77Q244.10 96.77 240.65 95.04Q237.21 93.32 235.37 89.99Q233.53 86.66 233.53 81.99L233.53 81.99L233.53 65.77Q233.53 61.02 235.37 57.73Q237.21 54.44 240.69 52.71Q244.17 50.99 248.92 50.99L248.92 50.99Q253.82 50.99 257.07 52.68Q260.32 54.36 261.97 57.65Q263.61 60.94 263.61 65.77L263.61 65.77L263.61 74.64L245.86 74.64L245.86 83.14Q245.86 84.82 246.24 85.90Q246.62 86.97 247.31 87.43Q248.00 87.89 248.92 87.89L248.92 87.89Q249.84 87.89 250.56 87.47Q251.29 87.04 251.71 86.13Q252.13 85.21 252.13 83.60L252.13 83.60L252.13 78.93L263.61 78.93L263.61 83.22Q263.61 89.95 259.71 93.36Q255.81 96.77 248.92 96.77ZM245.86 65.08L245.86 68.83L252.13 68.83L252.13 64.39Q252.13 62.63 251.71 61.63Q251.29 60.64 250.56 60.25Q249.84 59.87 248.84 59.87L248.84 59.87Q247.92 59.87 247.27 60.33Q246.62 60.79 246.24 61.90Q245.86 63.01 245.86 65.08L245.86 65.08ZM284.05 96.77L284.05 96.77Q278.23 96.77 274.37 94.16Q270.50 91.56 268.05 85.67L268.05 85.67L276.55 81.92Q277.78 84.90 279.42 86.62Q281.07 88.35 283.06 88.35L283.06 88.35Q284.51 88.35 285.24 87.73Q285.97 87.12 285.97 86.05L285.97 86.05Q285.97 84.29 284.63 82.83Q283.29 81.38 279.84 78.55L279.84 78.55L276.63 75.87Q273.11 72.88 271.08 70.09Q269.05 67.30 269.05 63.16L269.05 63.16Q269.05 59.57 270.92 56.81Q272.80 54.05 275.94 52.52Q279.08 50.99 282.67 50.99L282.67 50.99Q288.19 50.99 291.86 53.98Q295.53 56.96 297.06 62.40L297.06 62.40L288.87 66.07Q288.41 64.62 287.57 63.16Q286.73 61.71 285.58 60.71Q284.43 59.72 282.98 59.72L282.98 59.72Q281.76 59.72 281.03 60.41Q280.30 61.10 280.30 62.24L280.30 62.24Q280.30 63.70 281.95 65.38Q283.59 67.07 286.50 69.44L286.50 69.44L289.64 72.20Q291.55 73.80 293.39 75.64Q295.23 77.48 296.41 79.70Q297.60 81.92 297.60 84.75L297.60 84.75Q297.60 88.58 295.69 91.29Q293.77 94.01 290.67 95.39Q287.57 96.77 284.05 96.77ZM316.74 96.46L316.74 96.46Q311.76 96.46 309.08 95.00Q306.40 93.55 305.37 90.76Q304.34 87.96 304.34 83.98L304.34 83.98L304.34 59.95L300.05 59.95L300.05 51.76L304.34 51.76L304.34 38.29L316.97 38.29L316.97 51.76L323.24 51.76L323.24 59.95L316.97 59.95L316.97 82.76Q316.97 84.67 318.08 85.51Q319.19 86.36 320.87 86.36L320.87 86.36Q321.86 86.36 322.71 86.24Q323.55 86.13 324.24 86.05L324.24 86.05L324.24 95.85Q323.24 96 321.10 96.23Q318.96 96.46 316.74 96.46ZM344.29 96.77L344.29 96.77Q339.55 96.77 336.06 95.16Q332.58 93.55 330.70 90.34Q328.83 87.12 328.83 82.30L328.83 82.30L328.83 65.46Q328.83 60.64 330.70 57.42Q332.58 54.21 336.06 52.60Q339.55 50.99 344.29 50.99L344.29 50.99Q349.04 50.99 352.52 52.60Q356.00 54.21 357.92 57.42Q359.83 60.64 359.83 65.46L359.83 65.46L359.83 82.30Q359.83 87.12 357.92 90.34Q356.00 93.55 352.52 95.16Q349.04 96.77 344.29 96.77ZM344.37 88.50L344.37 88.50Q345.59 88.50 346.28 87.85Q346.97 87.20 347.24 86.01Q347.51 84.82 347.51 83.14L347.51 83.14L347.51 64.62Q347.51 62.93 347.24 61.75Q346.97 60.56 346.28 59.91Q345.59 59.26 344.37 59.26L344.37 59.26Q343.14 59.26 342.45 59.91Q341.77 60.56 341.46 61.75Q341.15 62.93 341.15 64.62L341.15 64.62L341.15 83.14Q341.15 84.82 341.46 86.01Q341.77 87.20 342.45 87.85Q343.14 88.50 344.37 88.50ZM379.35 96L366.87 96L366.87 51.76L379.35 51.76L379.35 59.11Q381.49 55.28 383.63 53.25Q385.78 51.22 388.84 51.22L388.84 51.22Q389.45 51.22 389.91 51.26Q390.37 51.30 390.75 51.45L390.75 51.45L390.75 63.85Q389.91 63.47 388.88 63.20Q387.84 62.93 386.70 62.93L386.70 62.93Q384.55 62.93 382.72 64.08Q380.88 65.23 379.35 67.22L379.35 67.22L379.35 96ZM425.20 96.77L425.20 96.77Q420.30 96.77 417.62 93.32Q414.94 89.88 414.94 83.14L414.94 83.14L414.94 64.85Q414.94 60.71 416.09 57.61Q417.24 54.51 419.53 52.75Q421.83 50.99 425.20 50.99L425.20 50.99Q427.65 50.99 429.87 51.95Q432.09 52.91 433.92 54.51L433.92 54.51L433.92 34.00L446.40 34.00L446.40 96L433.92 96L433.92 92.56Q431.86 94.55 429.64 95.66Q427.42 96.77 425.20 96.77ZM430.63 88.80L430.63 88.80Q431.24 88.80 432.12 88.50Q433.00 88.19 433.92 87.66L433.92 87.66L433.92 59.72Q433.16 59.34 432.32 59.03Q431.47 58.72 430.71 58.72L430.71 58.72Q429.02 58.72 428.26 60.14Q427.49 61.56 427.49 63.55L427.49 63.55L427.49 83.91Q427.49 85.28 427.80 86.39Q428.11 87.50 428.80 88.15Q429.48 88.80 430.63 88.80ZM468.60 96.77L468.60 96.77Q463.78 96.77 460.33 95.04Q456.89 93.32 455.05 89.99Q453.21 86.66 453.21 81.99L453.21 81.99L453.21 65.77Q453.21 61.02 455.05 57.73Q456.89 54.44 460.37 52.71Q463.85 50.99 468.60 50.99L468.60 50.99Q473.50 50.99 476.75 52.68Q480.00 54.36 481.65 57.65Q483.29 60.94 483.29 65.77L483.29 65.77L483.29 74.64L465.54 74.64L465.54 83.14Q465.54 84.82 465.92 85.90Q466.30 86.97 466.99 87.43Q467.68 87.89 468.60 87.89L468.60 87.89Q469.52 87.89 470.24 87.47Q470.97 87.04 471.39 86.13Q471.81 85.21 471.81 83.60L471.81 83.60L471.81 78.93L483.29 78.93L483.29 83.22Q483.29 89.95 479.39 93.36Q475.49 96.77 468.60 96.77ZM465.54 65.08L465.54 68.83L471.81 68.83L471.81 64.39Q471.81 62.63 471.39 61.63Q470.97 60.64 470.24 60.25Q469.52 59.87 468.52 59.87L468.52 59.87Q467.60 59.87 466.95 60.33Q466.30 60.79 465.92 61.90Q465.54 63.01 465.54 65.08L465.54 65.08ZM524.09 96L510.39 96L510.39 34.00L537.18 34.00L537.18 43.26L524.09 43.26L524.09 58.88L535.50 58.88L535.50 68.44L524.09 68.44L524.09 96ZM555.47 96L543.00 96L543.00 51.76L555.47 51.76L555.47 96ZM555.47 44.26L542.92 44.26L542.92 35.61L555.47 35.61L555.47 44.26ZM577.60 96.77L577.60 96.77Q572.77 96.77 569.37 95.00Q565.96 93.24 564.12 89.95Q562.29 86.66 562.29 81.99L562.29 81.99L562.29 65.77Q562.29 61.02 564.12 57.73Q565.96 54.44 569.37 52.71Q572.77 50.99 577.60 50.99L577.60 50.99Q582.34 50.99 585.67 52.45Q589 53.90 590.76 56.85Q592.52 59.80 592.52 64.31L592.52 64.31L592.52 68.98L580.50 68.98L580.50 63.93Q580.50 62.17 580.16 61.21Q579.81 60.25 579.16 59.87Q578.51 59.49 577.60 59.49L577.60 59.49Q576.68 59.49 576.06 59.99Q575.45 60.48 575.15 61.59Q574.84 62.70 574.84 64.69L574.84 64.69L574.84 83.06Q574.84 86.05 575.57 87.12Q576.29 88.19 577.67 88.19L577.67 88.19Q578.67 88.19 579.28 87.77Q579.89 87.35 580.20 86.39Q580.50 85.44 580.50 83.83L580.50 83.83L580.50 77.94L592.52 77.94L592.52 83.29Q592.52 87.73 590.72 90.76Q588.92 93.78 585.59 95.27Q582.26 96.77 577.60 96.77ZM611.50 96L599.10 96L599.10 34.00L611.50 34.00L611.50 55.66Q613.95 53.21 616.63 52.10Q619.31 50.99 622.37 50.99L622.37 50.99Q625.05 50.99 626.85 52.33Q628.65 53.67 629.57 56.01Q630.49 58.34 630.49 61.33L630.49 61.33L630.49 96L618.09 96L618.09 63.09Q618.09 61.48 617.55 60.64Q617.01 59.80 615.56 59.80L615.56 59.80Q614.80 59.80 613.72 60.22Q612.65 60.64 611.50 61.40L611.50 61.40L611.50 96ZM645.87 96.77L645.87 96.77Q642.50 96.77 640.21 95.16Q637.91 93.55 636.76 91.06Q635.61 88.58 635.61 85.97L635.61 85.97Q635.61 81.84 637.26 79.01Q638.91 76.18 641.59 74.26Q644.26 72.35 647.48 71.01Q650.69 69.67 653.83 68.60L653.83 68.60L653.83 64.16Q653.83 63.01 653.60 62.13Q653.37 61.25 652.84 60.75Q652.30 60.25 651.23 60.25L651.23 60.25Q650.16 60.25 649.58 60.71Q649.01 61.17 648.78 61.98Q648.55 62.78 648.47 63.78L648.47 63.78L648.17 66.99L636.53 66.53Q636.92 58.57 640.78 54.78Q644.65 50.99 652.38 50.99L652.38 50.99Q659.11 50.99 662.44 54.70Q665.77 58.42 665.77 64.31L665.77 64.31L665.77 84.98Q665.77 87.73 665.89 89.80Q666.00 91.87 666.19 93.40Q666.39 94.93 666.54 96L666.54 96L655.36 96Q655.13 94.24 654.83 92.17Q654.52 90.11 654.37 89.72L654.37 89.72Q653.60 92.48 651.50 94.62Q649.39 96.77 645.87 96.77ZM650.31 88.35L650.31 88.35Q651.08 88.35 651.73 88.04Q652.38 87.73 652.91 87.20Q653.45 86.66 653.83 86.13L653.83 86.13L653.83 74.03Q652.30 74.95 651 75.91Q649.70 76.86 648.78 78.01Q647.86 79.16 647.36 80.50Q646.87 81.84 646.87 83.52L646.87 83.52Q646.87 85.74 647.79 87.04Q648.70 88.35 650.31 88.35ZM686.82 96.77L686.82 96.77Q681.00 96.77 677.14 94.16Q673.27 91.56 670.82 85.67L670.82 85.67L679.32 81.92Q680.55 84.90 682.19 86.62Q683.84 88.35 685.83 88.35L685.83 88.35Q687.28 88.35 688.01 87.73Q688.74 87.12 688.74 86.05L688.74 86.05Q688.74 84.29 687.40 82.83Q686.06 81.38 682.61 78.55L682.61 78.55L679.40 75.87Q675.88 72.88 673.85 70.09Q671.82 67.30 671.82 63.16L671.82 63.16Q671.82 59.57 673.70 56.81Q675.57 54.05 678.71 52.52Q681.85 50.99 685.44 50.99L685.44 50.99Q690.96 50.99 694.63 53.98Q698.30 56.96 699.83 62.40L699.83 62.40L691.64 66.07Q691.19 64.62 690.34 63.16Q689.50 61.71 688.35 60.71Q687.20 59.72 685.75 59.72L685.75 59.72Q684.53 59.72 683.80 60.41Q683.07 61.10 683.07 62.24L683.07 62.24Q683.07 63.70 684.72 65.38Q686.36 67.07 689.27 69.44L689.27 69.44L692.41 72.20Q694.32 73.80 696.16 75.64Q698.00 77.48 699.18 79.70Q700.37 81.92 700.37 84.75L700.37 84.75Q700.37 88.58 698.46 91.29Q696.54 94.01 693.44 95.39Q690.34 96.77 686.82 96.77Z" fill="#2D9CA3"/><path transform="translate(187 146) scale(0.73386) translate(0.01 -175.49)" d="M-0.008 175.488 L-0.008 134.613 L8.258 134.613 L8.258 175.488 Z M12.879 175.488 L12.879 145.863 L20.52 145.863 L20.52 147.941 C21.246 147.109 22.121 146.449 23.145 145.957 C24.164 145.457 25.227 145.207 26.332 145.207 C27.383 145.207 28.32 145.535 29.145 146.191 C29.965 146.848 30.574 147.656 30.973 148.613 C31.379 149.574 31.582 150.566 31.582 151.598 L31.582 175.488 L23.926 175.488 L23.926 152.941 C23.926 151.629 23.504 150.973 22.66 150.973 C22.566 150.973 22.465 150.984 22.363 151.004 C22.27 151.027 22.168 151.062 22.066 151.113 C21.973 151.168 21.887 151.215 21.816 151.254 C21.742 151.285 21.652 151.348 21.551 151.441 C21.445 151.535 21.363 151.609 21.301 151.66 C21.246 151.703 21.168 151.781 21.066 151.895 C20.961 152 20.895 152.074 20.863 152.113 C20.832 152.156 20.77 152.23 20.676 152.332 L20.52 152.504 L20.52 175.488 Z M35.332 169.816 L35.332 152.301 C35.332 150.426 35.918 148.77 37.098 147.332 C38.273 145.895 39.738 145.176 41.488 145.176 C42.434 145.176 43.336 145.426 44.191 145.926 C45.043 146.418 45.785 147.062 46.41 147.863 L46.41 134.613 L54.066 134.613 L54.066 175.488 L46.41 175.488 L46.41 173.27 C45.805 174.156 45.043 174.859 44.129 175.379 C43.223 175.887 42.262 176.145 41.254 176.145 C39.574 176.145 38.168 175.512 37.035 174.254 C35.898 172.984 35.332 171.504 35.332 169.816 Z M46.41 168.738 L46.41 152.676 C45.543 151.543 44.824 150.973 44.254 150.973 C43.41 150.973 42.988 151.625 42.988 152.926 L42.988 168.238 C42.988 168.656 43.004 169 43.035 169.27 C43.074 169.531 43.195 169.781 43.395 170.02 C43.602 170.262 43.887 170.379 44.254 170.379 C44.898 170.379 45.617 169.832 46.41 168.738 Z M58.211 169.738 L58.211 145.863 L65.867 145.863 L65.867 167.879 C65.867 169.547 66.215 170.379 66.914 170.379 C67.59 170.379 68.387 169.824 69.305 168.707 L69.305 145.863 L76.945 145.863 L76.945 175.488 L69.305 175.488 L69.305 172.926 C68.523 173.863 67.617 174.637 66.586 175.238 C65.562 175.84 64.523 176.145 63.461 176.145 C61.898 176.145 60.633 175.484 59.664 174.16 C58.695 172.84 58.211 171.363 58.211 169.738 Z M79.988 168.332 L85.848 166.254 C86.004 166.703 86.121 167.051 86.207 167.301 C86.301 167.551 86.457 167.918 86.676 168.395 C86.895 168.875 87.102 169.246 87.301 169.504 C87.508 169.754 87.773 169.988 88.098 170.207 C88.43 170.426 88.777 170.535 89.145 170.535 C90.09 170.535 90.566 169.98 90.566 168.863 C90.566 168.449 90.473 168.027 90.285 167.598 C90.098 167.172 89.898 166.801 89.691 166.488 C89.492 166.176 89.137 165.77 88.629 165.27 C88.117 164.77 87.727 164.402 87.457 164.16 C87.184 163.922 86.711 163.512 86.035 162.926 L84.785 161.863 C83.16 160.457 81.883 159.074 80.957 157.707 C80.039 156.344 79.582 154.832 79.582 153.176 C79.582 151.887 79.848 150.723 80.379 149.691 C80.918 148.652 81.645 147.812 82.551 147.176 C83.465 146.543 84.488 146.059 85.613 145.723 C86.738 145.379 87.918 145.207 89.16 145.207 C90.262 145.207 91.32 145.441 92.332 145.91 C93.352 146.379 94.242 147.004 95.004 147.785 C95.773 148.559 96.434 149.434 96.988 150.41 C97.551 151.391 97.98 152.418 98.285 153.488 L92.801 155.379 C92.613 154.922 92.457 154.547 92.332 154.254 C92.215 153.953 92.023 153.566 91.754 153.098 C91.492 152.621 91.238 152.234 90.988 151.941 C90.738 151.652 90.43 151.395 90.066 151.176 C89.711 150.957 89.336 150.848 88.941 150.848 C88.41 150.848 87.992 151.043 87.691 151.426 C87.398 151.801 87.254 152.234 87.254 152.723 C87.254 153.379 87.617 154.125 88.348 154.957 C89.086 155.781 90.102 156.73 91.395 157.801 L92.801 159.051 C93.551 159.73 94.199 160.371 94.754 160.973 C95.316 161.566 95.871 162.246 96.426 163.004 C96.977 163.754 97.398 164.547 97.691 165.379 C97.98 166.215 98.129 167.047 98.129 167.879 C98.129 170.277 97.285 172.254 95.598 173.816 C93.91 175.371 91.871 176.145 89.488 176.145 C87.164 176.145 85.164 175.426 83.488 173.988 C81.809 172.551 80.645 170.668 79.988 168.332 Z M109.602 152.176 C110.039 152.176 110.422 152.152 110.758 152.098 C111.102 152.035 111.402 151.973 111.664 151.91 C111.922 151.84 112.152 151.715 112.352 151.535 C112.547 151.359 112.711 151.203 112.836 151.066 C112.961 150.922 113.07 150.699 113.164 150.395 C113.258 150.082 113.324 149.828 113.367 149.629 C113.406 149.434 113.438 149.113 113.461 148.676 C113.492 148.238 113.508 147.891 113.508 147.629 C113.508 147.359 113.508 146.941 113.508 146.379 C113.508 146.234 113.508 146.121 113.508 146.035 C113.508 145.453 113.5 145.012 113.492 144.707 C113.48 144.395 113.453 144.004 113.414 143.535 C113.371 143.066 113.297 142.719 113.195 142.488 C113.102 142.25 112.953 141.98 112.758 141.676 C112.57 141.375 112.34 141.156 112.07 141.02 C111.797 140.887 111.453 140.766 111.039 140.66 C110.621 140.559 110.141 140.504 109.602 140.504 Z M101.258 175.488 L101.258 134.613 L111.148 134.613 C114.699 134.613 117.281 135.609 118.898 137.598 C120.523 139.578 121.336 142.441 121.336 146.191 C121.336 148.047 121.156 149.656 120.805 151.02 C120.449 152.375 119.953 153.496 119.32 154.379 C118.684 155.266 117.867 155.98 116.867 156.52 C115.867 157.051 114.781 157.434 113.617 157.66 C112.449 157.879 111.102 157.996 109.57 158.004 L109.57 175.488 Z M134.367 167.879 L134.367 153.207 C134.367 151.719 133.781 150.973 132.617 150.973 C131.574 150.973 131.055 151.719 131.055 153.207 L131.055 167.879 C131.055 168.215 131.062 168.488 131.086 168.707 C131.105 168.926 131.164 169.188 131.258 169.488 C131.352 169.781 131.508 170.004 131.727 170.16 C131.953 170.309 132.25 170.379 132.617 170.379 C133.781 170.379 134.367 169.547 134.367 167.879 Z M123.398 167.785 L123.398 155.191 C123.398 152.027 124.141 149.574 125.633 147.832 C127.133 146.082 129.461 145.207 132.617 145.207 C135.781 145.207 138.133 146.082 139.664 147.832 C141.195 149.574 141.961 152.027 141.961 155.191 L141.961 167.785 C141.961 170.254 141.043 172.266 139.211 173.816 C137.375 175.371 135.18 176.145 132.617 176.145 C130.969 176.145 129.449 175.809 128.055 175.145 C126.668 174.469 125.543 173.484 124.68 172.191 C123.824 170.891 123.398 169.422 123.398 167.785 Z M148.473 175.488 L144.129 145.863 L150.52 145.863 L152.879 164.129 L155.332 145.863 L161.098 145.863 L163.316 164.504 L165.91 145.863 L171.816 145.863 L167.426 175.488 L160.848 175.488 L158.051 157.988 L155.051 175.488 Z M181.73 157.301 L184.699 157.301 L184.699 153.207 C184.699 151.719 184.191 150.973 183.184 150.973 C182.215 150.973 181.73 151.719 181.73 153.207 Z M174.074 167.785 L174.074 155.191 C174.074 152.047 174.824 149.594 176.324 147.832 C177.824 146.062 180.109 145.176 183.184 145.176 C186.266 145.176 188.551 146.059 190.043 147.816 C191.543 149.566 192.293 152.027 192.293 155.191 L192.293 161.316 L181.73 161.316 L181.73 167.879 C181.73 169.547 182.215 170.379 183.184 170.379 C184.246 170.379 184.777 169.488 184.777 167.707 L184.777 164.457 L192.293 164.457 L192.293 167.785 C192.293 170.254 191.395 172.266 189.605 173.816 C187.824 175.371 185.684 176.145 183.184 176.145 C180.684 176.145 178.535 175.371 176.746 173.816 C174.965 172.254 174.074 170.246 174.074 167.785 Z M195.793 175.488 L195.793 145.863 L203.387 145.863 L203.387 148.27 C204.551 146.375 205.918 145.426 207.48 145.426 C207.918 145.426 208.605 145.504 209.543 145.66 L209.543 152.098 C208.137 151.953 207.145 151.879 206.574 151.879 C205.531 151.879 204.738 152.203 204.199 152.848 C203.656 153.484 203.387 154.402 203.387 155.598 L203.387 175.488 Z" fill="#737373"/></svg>